<svg width="138" height="82" fill="none" xmlns="http://www.w3.org/2000/svg"><path d="M64.28.117h4.44V32l-2.22 7.877L64.28 32V.117zM48 0h8.36a2 2 0 012 2v47.16a2 2 0 01-2 2H48V0zm33 8h2v3.5h-2z" fill="#0E0E0E"/><path d="M80 2a2 2 0 114 0v6.52h-4V2z" fill="#0E0E0E"/><ellipse cx="82" cy="16.68" rx="6" ry="5.68" fill="#0E0E0E"/><path d="M78.513 20l3.825 1.323-3.675 10.622-.792 2.137a.809.809 0 01-.504.487 3.233 3.233 0 00-1.873 4.524l.412.818-.919 2.656-2.565 3.78-1.282 1.89-.46-.173-.505-.175.317-2.237.671-4.409L78.513 20z" fill="#0E0E0E"/><path fill="#0E0E0E" d="M82 21.324L85.828 20 92.5 39.294l-3.828 1.323zm7 21L92.828 41l1.634 4.725a2 2 0 01-1.236 2.544l-.048.017a2 2 0 01-2.544-1.237L89 42.324zM.902 65.85h1.98c1.337 0 2.395.33 3.177.99.843.707 1.265 1.738 1.265 3.094 0 1.355-.41 2.384-1.23 3.088-.766.652-1.817.978-3.153.978H.902v-8.15zm5.221 4.09c0-2.098-1.105-3.147-3.316-3.147h-.733v6.27h.797c1.688 0 2.715-.61 3.082-1.829a4.6 4.6 0 00.17-1.294zm5.195-4.096h1.172V74h-1.172v-8.156zm11.505 8.074c-.449.117-1.043.176-1.78.176-.735 0-1.366-.092-1.893-.276a3.736 3.736 0 01-1.354-.814c-.812-.758-1.219-1.813-1.219-3.164 0-.883.211-1.645.633-2.285.57-.871 1.447-1.426 2.631-1.664.363-.07.809-.106 1.336-.106s.982.026 1.365.076v1.125c-.336-.086-.816-.129-1.441-.129-.621 0-1.131.07-1.53.211a2.604 2.604 0 00-.99.604c-.523.512-.785 1.234-.785 2.168 0 .95.258 1.709.774 2.28.562.62 1.365.93 2.408.93.242 0 .466-.009.674-.028v-3.006h1.171v3.902zm4.299-8.074h1.172V74h-1.172v-8.156zm7.386 1.031h-2.455v-1.031h6.082v1.031H35.68V74h-1.172v-7.125zm10.105-1.031h.803L48.856 74h-1.22l-.826-2.05h-3.62L42.37 74h-1.196l3.44-8.156zm1.822 5.168l-1.43-3.575-1.435 3.575h2.865zm5.887-5.168h1.172v7.125h3.492V74h-4.664v-8.156zm14.901 0h2.315c1.543 0 2.537.457 2.982 1.37.16.337.24.735.24 1.196 0 .461-.082.856-.246 1.184a2.278 2.278 0 01-.662.808c-.539.407-1.26.61-2.162.61h-1.295V74h-1.172v-8.156zm2.239 4.23c.707 0 1.23-.136 1.57-.41.34-.273.51-.7.51-1.277 0-.77-.358-1.266-1.073-1.489a3.072 3.072 0 00-.908-.117h-1.166v3.293h1.067zm7.17-4.23h2.314c1.543 0 2.537.457 2.982 1.37.16.337.24.716.24 1.138 0 .417-.056.771-.17 1.06-.109.29-.263.537-.463.744-.382.399-.91.66-1.581.785.277.856.748 1.446 1.412 1.77.218.11.402.168.55.176.25.007.426 0 .528-.024V74h-.264a3.037 3.037 0 01-2.244-.938c-.543-.543-.908-1.226-1.096-2.05h-1.037V74h-1.172v-8.156zm2.237 4.23c.708 0 1.231-.136 1.57-.41.34-.273.51-.7.51-1.277 0-.77-.357-1.266-1.072-1.489a3.072 3.072 0 00-.908-.117h-1.166v3.293h1.067zm6.813-.14c0-.637.095-1.213.287-1.729a3.88 3.88 0 01.797-1.318c.715-.758 1.642-1.137 2.783-1.137 1.144 0 2.07.379 2.777 1.137.719.77 1.078 1.785 1.078 3.047 0 1.261-.36 2.273-1.078 3.035-.703.75-1.629 1.125-2.777 1.125-1.145 0-2.072-.375-2.783-1.125-.723-.766-1.084-1.778-1.084-3.035zm1.171-.006c0 .89.217 1.627.65 2.209.49.648 1.17.972 2.046.972.875 0 1.554-.324 2.039-.972.43-.575.644-1.307.644-2.198 0-.898-.214-1.638-.644-2.22-.484-.656-1.164-.985-2.04-.985-.878 0-1.56.329-2.044.985-.434.582-.65 1.318-.65 2.209zm11.031 4.13c-.164 0-.392-.01-.685-.029V72.9c.156.046.437.07.844.07.41 0 .753-.057 1.03-.17.282-.114.517-.293.704-.54.379-.495.568-1.29.568-2.384v-2.994H97.34v-1.037h4.177v4.031c0 2.117-.666 3.426-1.998 3.926-.457.172-1.002.258-1.635.258zm7.861-8.214h5.268v1.02h-4.096v2.402h3.1v.984h-3.1v2.719h4.096V74h-5.268v-8.156zm14.951 8.11c-.387.07-.908.105-1.564.105-.653 0-1.243-.09-1.77-.27a3.756 3.756 0 01-1.353-.797c-.813-.754-1.219-1.805-1.219-3.152 0-.88.209-1.64.627-2.285.566-.871 1.435-1.426 2.607-1.664a6.78 6.78 0 011.283-.106c.5 0 .901.028 1.202.082v1.12c-.274-.087-.698-.13-1.272-.13-.57 0-1.055.07-1.453.211a2.597 2.597 0 00-.99.604c-.524.512-.785 1.234-.785 2.168 0 .941.257 1.687.773 2.238.559.594 1.361.89 2.408.89.614 0 1.115-.046 1.506-.14v1.125zm5.863-7.079h-2.455v-1.031h6.082v1.031h-2.455V74h-1.172v-7.125z"/></svg>