<svg width="138" height="82" viewBox="0 0 138 82" fill="none" xmlns="http://www.w3.org/2000/svg">
<path d="M64.28 0.117321H68.72V32L66.5 39.8773L64.28 32V0.117321Z" fill="#0E0E0E"/>
<path d="M48 0H56.36C57.4646 0 58.36 0.89543 58.36 2V49.16C58.36 50.2646 57.4646 51.16 56.36 51.16H48V0Z" fill="#0E0E0E"/>
<rect x="81" y="8" width="2" height="3.5" fill="#0E0E0E"/>
<path d="M80 2C80 0.895431 80.8954 0 82 0V0C83.1046 0 84 0.895431 84 2V8.52H80V2Z" fill="#0E0E0E"/>
<ellipse cx="82" cy="16.68" rx="6" ry="5.68" fill="#0E0E0E"/>
<path d="M78.5131 20L82.3375 21.3232L78.6625 31.9449L77.8714 34.0817C77.786 34.3123 77.6003 34.4914 77.3669 34.5686V34.5686C75.4915 35.188 74.605 37.3297 75.494 39.0934L75.9062 39.9113L74.9875 42.5667L72.4224 46.3463L71.1399 48.2361L70.6805 48.0644L70.1746 47.889L70.4918 45.6521L71.1632 41.2435L78.5131 20Z" fill="#0E0E0E"/>
<rect x="82" y="21.3239" width="4.05" height="20.4154" transform="rotate(-19.08 82 21.3239)" fill="#0E0E0E"/>
<path d="M89 42.3239L92.8275 41L94.4619 45.7253C94.823 46.7692 94.2695 47.9081 93.2256 48.2692L93.1783 48.2856C92.1345 48.6466 90.9955 48.0931 90.6344 47.0492L89 42.3239Z" fill="#0E0E0E"/>
<path d="M0.902344 65.8496H2.88281C4.21875 65.8496 5.27734 66.1797 6.05859 66.8398C6.90234 67.5469 7.32422 68.5781 7.32422 69.9336C7.32422 71.2891 6.91406 72.3184 6.09375 73.0215C5.32812 73.6738 4.27734 74 2.94141 74H0.902344V65.8496ZM6.12305 69.9395C6.12305 67.8418 5.01758 66.793 2.80664 66.793H2.07422V73.0625H2.87109C4.55859 73.0625 5.58594 72.4531 5.95312 71.2344C6.06641 70.8477 6.12305 70.416 6.12305 69.9395ZM11.318 65.8438H12.4898V74H11.318V65.8438ZM22.8234 73.918C22.3742 74.0352 21.7805 74.0938 21.0422 74.0938C20.3078 74.0938 19.677 74.002 19.1496 73.8184C18.6262 73.6348 18.175 73.3633 17.7961 73.0039C16.9836 72.2461 16.5773 71.1914 16.5773 69.8398C16.5773 68.957 16.7883 68.1953 17.2102 67.5547C17.7805 66.6836 18.6574 66.1289 19.841 65.8906C20.2043 65.8203 20.6496 65.7852 21.177 65.7852C21.7043 65.7852 22.1594 65.8105 22.5422 65.8613V66.9863C22.2063 66.9004 21.7258 66.8574 21.1008 66.8574C20.4797 66.8574 19.9699 66.9277 19.5715 67.0684C19.173 67.209 18.843 67.4102 18.5813 67.6719C18.0578 68.1836 17.7961 68.9062 17.7961 69.8398C17.7961 70.7891 18.0539 71.5488 18.5695 72.1191C19.132 72.7402 19.9348 73.0508 20.9777 73.0508C21.2199 73.0508 21.4445 73.041 21.6516 73.0215V70.0156H22.8234V73.918ZM27.1219 65.8438H28.2938V74H27.1219V65.8438ZM34.5082 66.875H32.0531V65.8438H38.1352V66.875H35.6801V74H34.5082V66.875ZM44.6133 65.8438H45.416L48.8555 74H47.6367L46.8105 71.9492H43.1895L42.3691 74H41.1738L44.6133 65.8438ZM46.4355 71.0117L45.0059 67.4375L43.5703 71.0117H46.4355ZM52.3219 65.8438H53.4938V72.9688H56.9859V74H52.3219V65.8438ZM67.2234 65.8438H69.5379C71.0809 65.8438 72.075 66.3008 72.5203 67.2148C72.6805 67.5508 72.7605 67.9492 72.7605 68.4102C72.7605 68.8711 72.6785 69.2656 72.5145 69.5938C72.3504 69.9219 72.1297 70.1914 71.8523 70.4023C71.3133 70.8086 70.5926 71.0117 69.6902 71.0117H68.3953V74H67.2234V65.8438ZM69.4617 70.0742C70.1687 70.0742 70.6922 69.9375 71.032 69.6641C71.3719 69.3906 71.5418 68.9648 71.5418 68.3867C71.5418 67.6172 71.1844 67.1211 70.4695 66.8984C70.2195 66.8203 69.9168 66.7812 69.5613 66.7812H68.3953V70.0742H69.4617ZM76.6312 65.8438H78.9457C80.4887 65.8438 81.4828 66.3008 81.9281 67.2148C82.0883 67.5508 82.1684 67.9297 82.1684 68.3516C82.1684 68.7695 82.1117 69.123 81.9984 69.4121C81.8891 69.7012 81.7348 69.9492 81.5355 70.1562C81.1527 70.5547 80.6254 70.8164 79.9535 70.9414C80.2309 71.7969 80.7016 72.3867 81.3656 72.7109C81.5844 72.8203 81.768 72.8789 81.9164 72.8867C82.1664 72.8945 82.3422 72.8867 82.4437 72.8633V74H82.1801C81.3012 74 80.5531 73.6875 79.9359 73.0625C79.393 72.5195 79.0277 71.8359 78.8402 71.0117H77.8031V74H76.6312V65.8438ZM78.8695 70.0742C79.5766 70.0742 80.1 69.9375 80.4398 69.6641C80.7797 69.3906 80.9496 68.9648 80.9496 68.3867C80.9496 67.6172 80.5922 67.1211 79.8773 66.8984C79.6273 66.8203 79.3246 66.7812 78.9691 66.7812H77.8031V70.0742H78.8695ZM85.6816 69.9336C85.6816 69.2969 85.7773 68.7207 85.9688 68.2051C86.1602 67.6895 86.4258 67.25 86.7656 66.8867C87.4805 66.1289 88.4082 65.75 89.5488 65.75C90.6934 65.75 91.6191 66.1289 92.3262 66.8867C93.0449 67.6562 93.4043 68.6719 93.4043 69.9336C93.4043 71.1953 93.0449 72.207 92.3262 72.9688C91.623 73.7188 90.6973 74.0938 89.5488 74.0938C88.4043 74.0938 87.4766 73.7188 86.7656 72.9688C86.043 72.2031 85.6816 71.1914 85.6816 69.9336ZM86.8535 69.9277C86.8535 70.8184 87.0703 71.5547 87.5039 72.1367C87.9922 72.7852 88.6738 73.1094 89.5488 73.1094C90.4238 73.1094 91.1035 72.7852 91.5879 72.1367C92.0176 71.5625 92.2324 70.8301 92.2324 69.9395C92.2324 69.041 92.0176 68.3008 91.5879 67.7188C91.1035 67.0625 90.4238 66.7344 89.5488 66.7344C88.6699 66.7344 87.9883 67.0625 87.5039 67.7188C87.0703 68.3008 86.8535 69.0371 86.8535 69.9277ZM97.8844 74.0586C97.7203 74.0586 97.4918 74.0488 97.1988 74.0293V72.8984C97.3551 72.9453 97.6363 72.9688 98.0426 72.9688C98.4527 72.9688 98.7965 72.9121 99.0738 72.7988C99.3551 72.6855 99.5895 72.5059 99.777 72.2598C100.156 71.7637 100.345 70.9688 100.345 69.875V66.8809H97.3395V65.8438H101.517V69.875C101.517 71.9922 100.851 73.3008 99.5191 73.8008C99.0621 73.9727 98.5172 74.0586 97.8844 74.0586ZM105.745 65.8438H111.013V66.8633H106.917V69.2656H110.017V70.25H106.917V72.9688H111.013V74H105.745V65.8438ZM120.696 73.9531C120.309 74.0234 119.788 74.0586 119.132 74.0586C118.479 74.0586 117.889 73.9688 117.362 73.7891C116.839 73.6094 116.388 73.3438 116.009 72.9922C115.196 72.2383 114.79 71.1875 114.79 69.8398C114.79 68.9609 114.999 68.1992 115.417 67.5547C115.983 66.6836 116.852 66.1289 118.024 65.8906C118.384 65.8203 118.811 65.7852 119.307 65.7852C119.807 65.7852 120.208 65.8125 120.509 65.8672V66.9863C120.235 66.9004 119.811 66.8574 119.237 66.8574C118.667 66.8574 118.182 66.9277 117.784 67.0684C117.386 67.209 117.055 67.4102 116.794 67.6719C116.27 68.1836 116.009 68.9062 116.009 69.8398C116.009 70.7812 116.266 71.5273 116.782 72.0781C117.341 72.6719 118.143 72.9688 119.19 72.9688C119.804 72.9688 120.305 72.9219 120.696 72.8281V73.9531ZM126.559 66.875H124.104V65.8438H130.186V66.875H127.731V74H126.559V66.875Z" fill="#0E0E0E"/>
</svg>
